# xmcd
#
# Track frame offsets: 
#        150
#        34383
#        69956
#        92491
#        130803
#        156911
#        199932
#        251494
#        296840
#        320752
#
# Disc length: 4795 seconds
#
# Revision: 8
# Processed by: cddbd v1.5.2PL0 Copyright (c) Steve Scherf et al.
# Submitted via: ExactAudioCopy v1.3
#
DISCID=9312b90a
DTITLE=Rory Gallagher - Irish Tour '74
DYEAR=1974
DGENRE=Blues
TTITLE0=Cradle Rock
TTITLE1=I Wonder Who
TTITLE2=Tattoo'd Lady
TTITLE3=Too Much Alcohol
TTITLE4=As The Crow Flies
TTITLE5=A Million Miles Away
TTITLE6=Walk On Hot Coals
TTITLE7=Who's That Coming
TTITLE8=Back On My Stompin' Ground (After Hours)
TTITLE9=Just A Little Bit
EXTD=
EXTT0=
EXTT1=
EXTT2=
EXTT3=
EXTT4=
EXTT5=
EXTT6=
EXTT7=
EXTT8=
EXTT9=
PLAYORDER=
